<?xml version="1.0" encoding="UTF-8" standalone="no"?>
<!DOCTYPE svg PUBLIC "-//W3C//DTD SVG 1.1//EN"
 "http://www.w3.org/Graphics/SVG/1.1/DTD/svg11.dtd">
<!-- Generated by graphviz version 12.0.0 (20240704.0754)
 -->
<!-- Pages: 1 -->
<svg width="710pt" height="456pt"
 viewBox="0.00 0.00 709.50 456.00" xmlns="http://www.w3.org/2000/svg" xmlns:xlink="http://www.w3.org/1999/xlink">
<g id="graph0" class="graph" transform="scale(1 1) rotate(0) translate(4 452)">
<polygon fill="white" stroke="none" points="-4,4 -4,-452 705.5,-452 705.5,4 -4,4"/>
<!-- select -->
<g id="node1" class="node">
<title>select</title>
<g id="a_node1"><a xlink:title="建议有经验的同学选择 QEMU 并进一步了解">
<polygon fill="none" stroke="black" points="550.5,-448 406.25,-399.5 550.5,-351 694.75,-399.5 550.5,-448"/>
<text text-anchor="middle" x="550.5" y="-406.45" font-family="Arial" font-size="14.00">以下三种虚拟机方案</text>
<text text-anchor="middle" x="550.5" y="-386.2" font-family="Arial" font-size="14.00">任意选择一种即可</text>
</a>
</g>
</g>
<!-- utm -->
<g id="node3" class="node">
<title>utm</title>
<g id="a_node3"><a xlink:title="是免费下载的&#10;Appstore 付费只是为了支持作者的&#10;当然, 富哥随便">
<polygon fill="none" stroke="black" points="431,-294.75 352,-294.75 352,-258.75 431,-258.75 431,-294.75"/>
<text text-anchor="middle" x="391.5" y="-273.57" font-family="Arial" font-size="14.00">下载 UTM</text>
</a>
</g>
</g>
<!-- select&#45;&gt;utm -->
<g id="edge1" class="edge">
<title>select&#45;&gt;utm</title>
<path fill="none" stroke="black" d="M507.05,-365.5C480.59,-345.41 447.37,-320.18 423.34,-301.93"/>
<polygon fill="black" stroke="black" points="425.59,-299.24 415.51,-295.98 421.35,-304.82 425.59,-299.24"/>
<text text-anchor="middle" x="481.38" y="-319.7" font-family="Arial" font-size="14.00">方案 1</text>
</g>
<!-- vmware -->
<g id="node7" class="node">
<title>vmware</title>
<g id="a_node7"><a xlink:title="点击 Register 注册">
<polygon fill="none" stroke="black" points="625.62,-294.75 475.38,-294.75 475.38,-258.75 625.62,-258.75 625.62,-294.75"/>
<text text-anchor="middle" x="550.5" y="-273.57" font-family="Arial" font-size="14.00">注册 BoardCOM 账号</text>
</a>
</g>
</g>
<!-- select&#45;&gt;vmware -->
<g id="edge2" class="edge">
<title>select&#45;&gt;vmware</title>
<path fill="none" stroke="black" d="M550.5,-350.78C550.5,-335.74 550.5,-319.6 550.5,-306.33"/>
<polygon fill="black" stroke="black" points="554,-306.58 550.5,-296.58 547,-306.58 554,-306.58"/>
<text text-anchor="middle" x="570.38" y="-319.7" font-family="Arial" font-size="14.00">方案 2</text>
</g>
<!-- qemu -->
<g id="node9" class="node">
<title>qemu</title>
<g id="a_node9"><a xlink:title="不建议新手使用">
<polygon fill="none" stroke="black" points="701.5,-294.75 643.5,-294.75 643.5,-258.75 701.5,-258.75 701.5,-294.75"/>
<text text-anchor="middle" x="672.5" y="-271.32" font-family="Arial" font-size="14.00">QEMU</text>
</a>
</g>
</g>
<!-- select&#45;&gt;qemu -->
<g id="edge3" class="edge">
<title>select&#45;&gt;qemu</title>
<path fill="none" stroke="black" d="M586.44,-362.92C605.89,-343.67 629.46,-320.35 647.01,-302.98"/>
<polygon fill="black" stroke="black" points="649.37,-305.57 654.02,-296.04 644.45,-300.59 649.37,-305.57"/>
<text text-anchor="middle" x="655.38" y="-319.7" font-family="Arial" font-size="14.00">方案 3</text>
</g>
<!-- utm_prebuid_p -->
<g id="node2" class="node">
<title>utm_prebuid_p</title>
<g id="a_node2"><a xlink:title="会省去安装系统的时间">
<polygon fill="none" stroke="black" points="236.5,-221.75 0,-193.5 236.5,-165.25 473,-193.5 236.5,-221.75"/>
<text text-anchor="middle" x="236.5" y="-190.32" font-family="Arial" font-size="14.00">是否使用已经安装完的 UTM 镜像? </text>
</a>
</g>
</g>
<!-- sys_img -->
<g id="node4" class="node">
<title>sys_img</title>
<g id="a_node4"><a xlink:title="其他的镜像也可以">
<polygon fill="none" stroke="black" points="579.12,-109 425.88,-109 425.88,-73 579.12,-73 579.12,-109"/>
<text text-anchor="middle" x="502.5" y="-87.83" font-family="Arial" font-size="14.00">下载 Ubuntu 安装镜像</text>
</a>
</g>
</g>
<!-- utm_prebuid_p&#45;&gt;sys_img -->
<g id="edge5" class="edge">
<title>utm_prebuid_p&#45;&gt;sys_img</title>
<path fill="none" stroke="black" d="M292.26,-171.43C337.39,-154.38 400.68,-130.47 446.01,-113.34"/>
<polygon fill="black" stroke="black" points="447.01,-116.71 455.13,-109.9 444.54,-110.16 447.01,-116.71"/>
<text text-anchor="middle" x="416.62" y="-133.95" font-family="Arial" font-size="14.00">否</text>
</g>
<!-- utm_down -->
<g id="node6" class="node">
<title>utm_down</title>
<g id="a_node6"><a xlink:title="https://mac.getutm.app/gallery/">
<polygon fill="none" stroke="black" points="334.88,-109 138.12,-109 138.12,-73 334.88,-73 334.88,-109"/>
<text text-anchor="middle" x="236.5" y="-87.83" font-family="Arial" font-size="14.00">下载已经安装好的 UTM 镜像</text>
</a>
</g>
</g>
<!-- utm_prebuid_p&#45;&gt;utm_down -->
<g id="edge6" class="edge">
<title>utm_prebuid_p&#45;&gt;utm_down</title>
<path fill="none" stroke="black" d="M236.5,-164.77C236.5,-151.02 236.5,-134.43 236.5,-120.57"/>
<polygon fill="black" stroke="black" points="240,-120.74 236.5,-110.74 233,-120.74 240,-120.74"/>
<text text-anchor="middle" x="243.62" y="-133.95" font-family="Arial" font-size="14.00">是</text>
</g>
<!-- utm&#45;&gt;utm_prebuid_p -->
<g id="edge4" class="edge">
<title>utm&#45;&gt;utm_prebuid_p</title>
<path fill="none" stroke="black" d="M358.25,-258.32C338.18,-247.8 312.16,-234.16 289.32,-222.19"/>
<polygon fill="black" stroke="black" points="291.25,-219.25 280.77,-217.71 288,-225.45 291.25,-219.25"/>
</g>
<!-- sys_install -->
<g id="node5" class="node">
<title>sys_install</title>
<g id="a_node5"><a xlink:title="在网上搜索相关关键词即可">
<polygon fill="none" stroke="black" points="564.88,-36 440.12,-36 440.12,0 564.88,0 564.88,-36"/>
<text text-anchor="middle" x="502.5" y="-14.82" font-family="Arial" font-size="14.00">安装 Ubuntu 系统</text>
</a>
</g>
</g>
<!-- sys_img&#45;&gt;sys_install -->
<g id="edge9" class="edge">
<title>sys_img&#45;&gt;sys_install</title>
<path fill="none" stroke="black" d="M502.5,-72.81C502.5,-65.23 502.5,-56.1 502.5,-47.54"/>
<polygon fill="black" stroke="black" points="506,-47.54 502.5,-37.54 499,-47.54 506,-47.54"/>
</g>
<!-- vmw_down -->
<g id="node8" class="node">
<title>vmw_down</title>
<g id="a_node8"><a xlink:title="用 BoardCOM 账号登陆下载即可">
<polygon fill="none" stroke="black" points="662.12,-211.5 490.88,-211.5 490.88,-175.5 662.12,-175.5 662.12,-211.5"/>
<text text-anchor="middle" x="576.5" y="-190.32" font-family="Arial" font-size="14.00">下载 VMWare Fusion Pro</text>
</a>
</g>
</g>
<!-- vmware&#45;&gt;vmw_down -->
<g id="edge7" class="edge">
<title>vmware&#45;&gt;vmw_down</title>
<path fill="none" stroke="black" d="M556.01,-258.52C559.34,-248.14 563.64,-234.67 567.45,-222.77"/>
<polygon fill="black" stroke="black" points="570.73,-224.02 570.44,-213.43 564.06,-221.89 570.73,-224.02"/>
</g>
<!-- vmw_down&#45;&gt;sys_img -->
<g id="edge8" class="edge">
<title>vmw_down&#45;&gt;sys_img</title>
<path fill="none" stroke="black" d="M563.95,-175.45C552.43,-159.81 535.19,-136.4 521.9,-118.35"/>
<polygon fill="black" stroke="black" points="525.01,-116.67 516.26,-110.69 519.37,-120.82 525.01,-116.67"/>
</g>
</g>
</svg>
