<?xml version="1.0" encoding="UTF-8" standalone="no"?>
<!DOCTYPE svg PUBLIC "-//W3C//DTD SVG 1.1//EN"
 "http://www.w3.org/Graphics/SVG/1.1/DTD/svg11.dtd">
<!-- Generated by graphviz version 12.0.0 (20240704.0754)
 -->
<!-- Pages: 1 -->
<svg width="1039pt" height="584pt"
 viewBox="0.00 0.00 1038.62 583.75" xmlns="http://www.w3.org/2000/svg" xmlns:xlink="http://www.w3.org/1999/xlink">
<g id="graph0" class="graph" transform="scale(1 1) rotate(0) translate(4 579.75)">
<polygon fill="white" stroke="none" points="-4,4 -4,-579.75 1034.62,-579.75 1034.62,4 -4,4"/>
<!-- new -->
<g id="node1" class="node">
<title>new</title>
<g id="a_node1"><a xlink:title="也可以考虑使用 macport 或 nix 等其他包管理器, &#10;但是本文并不进行介绍">
<polygon fill="none" stroke="black" points="300.62,-575.75 39.38,-547.5 300.62,-519.25 561.88,-547.5 300.62,-575.75"/>
<text text-anchor="middle" x="300.62" y="-544.33" font-family="Arial" font-size="14.00">是否安装有 Homebrew 或其他包管理器</text>
</a>
</g>
</g>
<!-- clt -->
<g id="node2" class="node">
<title>clt</title>
<g id="a_node2"><a xlink:title="请在终端中运行&#10; xcode&#45;select &#45;&#45;version&#10; 以检查是否安装">
<polygon fill="none" stroke="black" points="300.62,-463 35.63,-434.75 300.62,-406.5 565.62,-434.75 300.62,-463"/>
<text text-anchor="middle" x="300.62" y="-431.57" font-family="Arial" font-size="14.00">是否有安装过 CLT (Command Line Tool)</text>
</a>
</g>
</g>
<!-- new&#45;&gt;clt -->
<g id="edge1" class="edge">
<title>new&#45;&gt;clt</title>
<path fill="none" stroke="black" d="M300.62,-518.84C300.62,-505.49 300.62,-489.25 300.62,-474.68"/>
<polygon fill="black" stroke="black" points="304.13,-474.96 300.63,-464.96 297.13,-474.96 304.13,-474.96"/>
<text text-anchor="middle" x="307.75" y="-487.95" font-family="Arial" font-size="14.00">无</text>
</g>
<!-- vpn_p -->
<g id="node3" class="node">
<title>vpn_p</title>
<g id="a_node3"><a xlink:title="理论上来说校园网访问 Github 还行, 虽然偶尔会抽风就是了">
<polygon fill="none" stroke="black" points="296.62,-269.25 78.13,-241 296.62,-212.75 515.12,-241 296.62,-269.25"/>
<text text-anchor="middle" x="296.62" y="-237.82" font-family="Arial" font-size="14.00">是否有稳定快速的 Github 连接? </text>
</a>
</g>
</g>
<!-- clt&#45;&gt;vpn_p -->
<g id="edge4" class="edge">
<title>clt&#45;&gt;vpn_p</title>
<path fill="none" stroke="black" d="M297.64,-406.34C296.02,-390.06 294.19,-369 293.38,-350.25 292.53,-330.71 292.88,-325.8 293.38,-306.25 293.58,-298.05 293.94,-289.28 294.34,-280.92"/>
<polygon fill="black" stroke="black" points="297.83,-281.18 294.85,-271.01 290.84,-280.82 297.83,-281.18"/>
<text text-anchor="middle" x="300.75" y="-325.07" font-family="Arial" font-size="14.00">有</text>
</g>
<!-- install_clt -->
<g id="node4" class="node">
<title>install_clt</title>
<g id="a_node4"><a xlink:href="https://ucas-ctf.github.io/posts/2024/0_VirtualMachine/setup-env-on-macOS#安装-clt-command-line-tools-for-xcode-命令行工具" xlink:title="该命令需要一定的网络连接">
<polygon fill="none" stroke="black" points="482.25,-350.25 317,-350.25 317,-306.25 482.25,-306.25 482.25,-350.25"/>
<text text-anchor="middle" x="399.62" y="-332.95" font-family="Arial" font-size="14.00">安装 CLT, 在终端中执行</text>
<text text-anchor="middle" x="399.62" y="-312.7" font-family="Arial" font-size="14.00"> xcode&#45;select &#45;&#45;install</text>
</a>
</g>
</g>
<!-- clt&#45;&gt;install_clt -->
<g id="edge2" class="edge">
<title>clt&#45;&gt;install_clt</title>
<path fill="none" stroke="black" d="M324.34,-408.72C338.53,-393.74 356.64,-374.62 371.54,-358.89"/>
<polygon fill="black" stroke="black" points="374.07,-361.31 378.41,-351.65 368.99,-356.5 374.07,-361.31"/>
<text text-anchor="middle" x="368.75" y="-375.2" font-family="Arial" font-size="14.00">无</text>
</g>
<!-- install_brew -->
<g id="node5" class="node">
<title>install_brew</title>
<g id="a_node5"><a xlink:href="https://ucas-ctf.github.io/posts/2024/0_VirtualMachine/setup-env-on-macOS#安装-homebrew" xlink:title="具体安装可以参考 brew.sh 网站上的命令&#10;想要用国内镜像源的话请参考正文中的清华源的配置">
<polygon fill="none" stroke="black" points="585.25,-44 0,-44 0,0 585.25,0 585.25,-44"/>
<text text-anchor="middle" x="292.62" y="-26.7" font-family="Arial" font-size="14.00">安装 Hombrew, 在终端中执行</text>
<text text-anchor="middle" x="292.62" y="-6.45" font-family="Arial" font-size="14.00">/bin/bash &#45;c &quot;$(curl &#45;fsSL https://raw.githubusercontent.com/Homebrew/install/HEAD/install.sh)&quot;</text>
</a>
</g>
</g>
<!-- vpn_p&#45;&gt;install_brew -->
<g id="edge6" class="edge">
<title>vpn_p&#45;&gt;install_brew</title>
<path fill="none" stroke="black" d="M293.68,-212.96C292.05,-196.64 290.19,-175.4 289.38,-156.5 287.92,-122.98 288.44,-114.54 289.38,-81 289.6,-72.87 290.01,-64.11 290.46,-55.92"/>
<polygon fill="black" stroke="black" points="293.95,-56.17 291.05,-45.98 286.96,-55.76 293.95,-56.17"/>
<text text-anchor="middle" x="296.75" y="-115.58" font-family="Arial" font-size="14.00">有</text>
</g>
<!-- brew_tsh -->
<g id="node6" class="node">
<title>brew_tsh</title>
<g id="a_node6"><a xlink:href="https://mirrors.tuna.tsinghua.edu.cn/help/homebrew/" xlink:title="建议写到 ~/.zshrc 或者是 ~/.bashrc 中">
<polygon fill="none" stroke="black" points="1030.62,-156.5 312.62,-156.5 312.62,-81 1030.62,-81 1030.62,-156.5"/>
<text text-anchor="middle" x="671.62" y="-139.2" font-family="Arial" font-size="14.00">配置清华源, 在终端中执行</text>
<text text-anchor="middle" x="671.62" y="-118.95" font-family="Arial" font-size="14.00">export HOMEBREW_BREW_GIT_REMOTE=&quot;https://mirrors.tuna.tsinghua.edu.cn/git/homebrew/brew.git&quot;</text>
<text text-anchor="middle" x="671.62" y="-103.2" font-family="Arial" font-size="14.00">export HOMEBREW_CORE_GIT_REMOTE=&quot;https://mirrors.tuna.tsinghua.edu.cn/git/homebrew/homebrew&#45;core.git&quot;</text>
<text text-anchor="middle" x="671.62" y="-87.45" font-family="Arial" font-size="14.00">export HOMEBREW_INSTALL_FROM_API=1</text>
</a>
</g>
</g>
<!-- vpn_p&#45;&gt;brew_tsh -->
<g id="edge5" class="edge">
<title>vpn_p&#45;&gt;brew_tsh</title>
<path fill="none" stroke="black" d="M358.13,-220.28C408.61,-204.09 481.77,-180.63 544.72,-160.44"/>
<polygon fill="black" stroke="black" points="545.64,-163.83 554.09,-157.44 543.5,-157.16 545.64,-163.83"/>
<text text-anchor="middle" x="501.75" y="-181.45" font-family="Arial" font-size="14.00">无</text>
</g>
<!-- install_clt&#45;&gt;vpn_p -->
<g id="edge3" class="edge">
<title>install_clt&#45;&gt;vpn_p</title>
<path fill="none" stroke="black" d="M373.9,-305.96C361.78,-295.92 347.09,-283.77 333.79,-272.76"/>
<polygon fill="black" stroke="black" points="336.39,-270.37 326.45,-266.69 331.92,-275.76 336.39,-270.37"/>
</g>
<!-- brew_tsh&#45;&gt;install_brew -->
<g id="edge7" class="edge">
<title>brew_tsh&#45;&gt;install_brew</title>
<path fill="none" stroke="black" d="M522.65,-80.51C477.84,-69.3 429.87,-57.31 389.38,-47.19"/>
<polygon fill="black" stroke="black" points="390.47,-43.85 379.91,-44.82 388.77,-50.64 390.47,-43.85"/>
</g>
</g>
</svg>
